<?xml version="1.0" encoding="utf-8"?>
<!-- Generator: Adobe Illustrator 18.1.1, SVG Export Plug-In . SVG Version: 6.00 Build 0)  -->
<svg version="1.1" id="Layer_1" xmlns="http://www.w3.org/2000/svg" xmlns:xlink="http://www.w3.org/1999/xlink" x="0px" y="0px"
	 viewBox="0 0 152.3 174.2" enable-background="new 0 0 152.3 174.2" xml:space="preserve">
<g>
	<g>
		<path fill="#FFFFFF" d="M23.8,2.6h3.3c2,0,3.6,0.7,3.6,2.9c0,2.1-1.6,3.1-3.6,3.1h-1.3v3.1h-2.1V2.6z M27,7c1.1,0,1.7-0.5,1.7-1.4
			S28.1,4.2,27,4.2h-1.1V7H27z"/>
		<path fill="#FFFFFF" d="M38.4,11.7l-1.7-3.3h-1.1v3.3h-2.1V2.6h3.3c1.9,0,3.5,0.7,3.5,2.8c0,1.3-0.7,2.2-1.6,2.6l2,3.6H38.4z
			 M35.5,6.8h1c1.1,0,1.7-0.5,1.7-1.4s-0.6-1.2-1.7-1.2h-1V6.8z"/>
		<path fill="#FFFFFF" d="M42.8,7.1c0-3,1.7-4.7,4.1-4.7c2.5,0,4.1,1.7,4.1,4.7c0,3-1.7,4.8-4.1,4.8C44.5,11.8,42.8,10.1,42.8,7.1z
			 M49,7.1c0-1.8-0.8-2.9-2-2.9c-1.2,0-2,1.1-2,2.9c0,1.8,0.8,3,2,3C48.2,10.1,49,8.9,49,7.1z"/>
		<path fill="#FFFFFF" d="M54,2.6h5.7v1.7h-3.7v2.1h3.1v1.7h-3.1v3.5H54V2.6z"/>
		<path fill="#FFFFFF" d="M62.5,2.6h5.7v1.7h-3.6v1.8h3.1v1.7h-3.1v2.1h3.8v1.7h-5.8V2.6z"/>
		<path fill="#FFFFFF" d="M72,9.1c0.6,0.6,1.5,0.9,2.2,0.9c0.9,0,1.3-0.3,1.3-0.9c0-0.6-0.5-0.8-1.3-1.1L73,7.6
			c-0.9-0.4-1.8-1.2-1.8-2.5c0-1.5,1.4-2.7,3.2-2.7c1,0,2.1,0.4,2.9,1.2l-1,1.3c-0.6-0.5-1.2-0.7-1.9-0.7c-0.7,0-1.2,0.3-1.2,0.8
			c0,0.6,0.6,0.8,1.4,1.1l1.2,0.5C76.9,7,77.6,7.7,77.6,9c0,1.5-1.3,2.8-3.4,2.8c-1.2,0-2.4-0.4-3.4-1.3L72,9.1z"/>
		<path fill="#FFFFFF" d="M80.7,9.1c0.6,0.6,1.5,0.9,2.2,0.9c0.9,0,1.3-0.3,1.3-0.9c0-0.6-0.5-0.8-1.3-1.1l-1.2-0.5
			c-0.9-0.4-1.8-1.2-1.8-2.5c0-1.5,1.4-2.7,3.2-2.7c1,0,2.1,0.4,2.9,1.2l-1,1.3c-0.6-0.5-1.2-0.7-1.9-0.7C82.4,4.2,82,4.5,82,5
			c0,0.6,0.6,0.8,1.4,1.1l1.2,0.5C85.6,7,86.3,7.7,86.3,9c0,1.5-1.3,2.8-3.4,2.8c-1.2,0-2.4-0.4-3.4-1.3L80.7,9.1z"/>
		<path fill="#FFFFFF" d="M89.1,2.6h2.1v9.1h-2.1V2.6z"/>
		<path fill="#FFFFFF" d="M94.1,7.1c0-3,1.7-4.7,4.1-4.7c2.5,0,4.1,1.7,4.1,4.7c0,3-1.7,4.8-4.1,4.8C95.8,11.8,94.1,10.1,94.1,7.1z
			 M100.2,7.1c0-1.8-0.8-2.9-2-2.9c-1.2,0-2,1.1-2,2.9c0,1.8,0.8,3,2,3C99.4,10.1,100.2,8.9,100.2,7.1z"/>
		<path fill="#FFFFFF" d="M105.3,2.6h2.1l2.4,4.5l0.9,2h0.1c-0.1-1-0.3-2.2-0.3-3.3V2.6h2v9.1h-2.1l-2.4-4.5l-0.9-2H107
			c0.1,1,0.3,2.2,0.3,3.3v3.2h-2V2.6z"/>
		<path fill="#FFFFFF" d="M120,9.5h-2.8l-0.6,2.2h-2.1l2.9-9.1h2.5l2.9,9.1h-2.2L120,9.5z M119.6,7.9l-0.2-0.8
			c-0.3-0.9-0.5-2-0.7-2.9h-0.1c-0.2,1-0.5,2-0.7,2.9l-0.2,0.8H119.6z"/>
		<path fill="#FFFFFF" d="M125,2.6h2.1v7.4h3.6v1.7H125V2.6z"/>
		<path fill="#FFFFFF" d="M42.7,28.4l-1.7-3.3h-1.1v3.3h-2.1v-9.1H41c1.9,0,3.5,0.7,3.5,2.8c0,1.3-0.7,2.2-1.6,2.6l2,3.6H42.7z
			 M39.8,23.5h1c1.1,0,1.7-0.5,1.7-1.4s-0.6-1.2-1.7-1.2h-1V23.5z"/>
		<path fill="#FFFFFF" d="M47.6,19.3h5.7V21h-3.6v1.8h3.1v1.7h-3.1v2.1h3.8v1.7h-5.8V19.3z"/>
		<path fill="#FFFFFF" d="M60.3,19.1c1.1,0,2.1,0.6,2.7,1.2l-1.1,1.3c-0.5-0.4-0.9-0.7-1.5-0.7c-1.3,0-2.3,1.1-2.3,2.9
			c0,1.9,0.9,3,2.2,3c0.8,0,1.3-0.3,1.7-0.8l1.1,1.2c-0.8,0.9-1.8,1.3-2.9,1.3c-2.4,0-4.3-1.6-4.3-4.7C56,20.9,58,19.1,60.3,19.1z"
			/>
		<path fill="#FFFFFF" d="M65.5,19.3h5.7V21h-3.6v1.8h3.1v1.7h-3.1v2.1h3.8v1.7h-5.8V19.3z"/>
		<path fill="#FFFFFF" d="M74.3,19.3h3.3c2,0,3.6,0.7,3.6,2.9c0,2.1-1.6,3.1-3.6,3.1h-1.3v3.1h-2.1V19.3z M77.5,23.7
			c1.1,0,1.7-0.5,1.7-1.4s-0.6-1.3-1.7-1.3h-1.1v2.7H77.5z"/>
		<path fill="#FFFFFF" d="M85.6,21h-2.5v-1.7h7V21h-2.5v7.4h-2V21z"/>
		<path fill="#FFFFFF" d="M92.8,19.3h2.1v9.1h-2.1V19.3z"/>
		<path fill="#FFFFFF" d="M97.8,23.8c0-3,1.7-4.7,4.1-4.7c2.5,0,4.1,1.7,4.1,4.7c0,3-1.7,4.8-4.1,4.8C99.5,28.5,97.8,26.8,97.8,23.8
			z M103.9,23.8c0-1.8-0.8-2.9-2-2.9c-1.2,0-2,1.1-2,2.9c0,1.8,0.8,3,2,3C103.1,26.8,103.9,25.6,103.9,23.8z"/>
		<path fill="#FFFFFF" d="M109,19.3h2.1l2.4,4.5l0.9,2h0.1c-0.1-1-0.3-2.2-0.3-3.3v-3.2h2v9.1H114l-2.4-4.5l-0.9-2h-0.1
			c0.1,1,0.3,2.2,0.3,3.3v3.2h-2V19.3z"/>
	</g>
	<g>
		<g>
			<path fill="#FFFFFF" d="M31.3,136.8v-6.7h5.6c4.4,0,7.1-1.2,7.1-4V91.6H31v-6.9c8.2-0.4,13.5-1.8,17.6-9.1h8.4v50.4
				c0,2.8,2.6,4,7.1,4h5.2v6.7H31.3z"/>
		</g>
		<g>
			<path fill="#FFFFFF" d="M72.6,103.5V75.7h7.2v7.2H80c3.2-4.3,6.7-7.7,12.5-7.7c4.7,0,8.7,1.2,12.2,2.4c3.5,1.2,6.7,2.4,9.6,2.4
				c2.7,0,3.8-1.8,4.5-4.3h5.9c0,18.8-21.6,22.4-21.6,56.3v4.8H89v-6.2c0-22.7,10.5-26.8,24.3-43.3l-0.2-0.2
				c-2.6,1.3-5.2,2.1-10,2.1c-3,0-5.3-0.5-7.4-0.9c-2.2-0.4-4.3-0.8-7.4-0.8c-5.9,0-8.7,5.1-8.7,13.5v2.5H72.6z"/>
		</g>
	</g>
	<g>
		<path fill="#FFFFFF" d="M32.3,41.2l-0.3,1.1c-0.6,0.2-1.1,0.5-1.5,0.9c-0.4,0.4-0.9,1.1-1.5,2.1l-7.8,12.9h-1.9l0.4-12.4
			l-8.1,12.4H9.6l0.8-14.5c0-0.6-0.1-1-0.4-1.2c-0.2-0.2-0.6-0.2-1.1-0.2l0.4-1.1h6.8l-0.3,1.1c-0.7,0-1.2,0.1-1.6,0.3
			c-0.3,0.2-0.5,0.6-0.5,1.2l-0.6,9.8l8-12.4h1.8l-0.3,12.4l5.3-8.9c0.1-0.1,0.2-0.3,0.2-0.4c0.1-0.2,0.1-0.3,0.2-0.4
			c0-0.1,0.1-0.3,0.1-0.4c0-0.4-0.2-0.8-0.6-0.9c-0.4-0.2-0.8-0.3-1.3-0.3l0.4-1.1H32.3z"/>
		<path fill="#FFFFFF" d="M45.9,45.2h-1.2c-0.4-0.9-0.7-1.6-1.1-2c-0.3-0.4-0.7-0.6-1-0.7c-0.4-0.1-0.9-0.1-1.7-0.1h-1.8l-1.9,6.2
			h0.8c0.8,0,1.4-0.1,1.8-0.2c0.4-0.2,0.7-0.4,1-0.7c0.2-0.3,0.4-0.8,0.6-1.5h1.2l-2,6.6h-1.2c0.2-0.6,0.3-1.1,0.3-1.5
			c0-0.6-0.2-1-0.6-1.1c-0.4-0.2-0.9-0.2-1.4-0.2h-0.8l-1.5,4.8c-0.1,0.4-0.2,0.7-0.2,1c0,0.2,0.1,0.4,0.2,0.6s0.4,0.3,0.8,0.4
			c0.4,0.1,1,0.1,1.6,0.1c1.5,0,2.6-0.3,3.4-0.9s1.4-1.4,2-2.4h1.2l-1.4,4.5H29.7l0.4-1.1c0.6,0,1-0.2,1.3-0.5
			c0.3-0.3,0.5-0.8,0.6-1.4l3.2-10.5c0.1-0.5,0.2-0.8,0.2-1c0-0.4-0.2-0.7-0.5-0.9c-0.3-0.2-0.7-0.3-1.1-0.3l0.3-1.1h11.7L45.9,45.2
			z"/>
		<path fill="#FFFFFF" d="M64.8,48.1c0,0.7-0.1,1.5-0.2,2.2s-0.4,1.5-0.7,2.2c-0.3,0.7-0.8,1.4-1.4,2.1s-1.3,1.3-2.1,1.8
			c-0.7,0.5-1.5,0.8-2.4,1c-0.8,0.2-1.6,0.4-2.4,0.4s-1.6,0.1-2.6,0.1h-6.7l0.4-1.1c0.6,0,1-0.2,1.2-0.5c0.2-0.3,0.5-0.8,0.6-1.4
			l3.2-10.4c0.1-0.5,0.2-0.9,0.2-1.1c0-0.5-0.1-0.8-0.4-0.9c-0.3-0.1-0.7-0.2-1.1-0.2l0.3-1.1h5.9c1,0,1.8,0.1,2.5,0.2
			c0.7,0.1,1.4,0.4,2.1,0.8c1.4,0.8,2.3,1.7,2.7,2.8C64.6,46,64.8,47.1,64.8,48.1z M61.2,47c0-1-0.1-1.8-0.4-2.5
			c-0.3-0.6-0.6-1.1-1.1-1.4s-0.9-0.5-1.5-0.6s-1.1-0.2-1.7-0.2h-0.6l-3.7,12.1C52.1,55,52,55.4,52,55.5c0,0.8,0.7,1.2,2.1,1.2
			c1.5,0,2.7-0.4,3.7-1.2c1-0.8,1.7-1.9,2.3-3.2c0.4-1,0.7-2,0.9-3C61.1,48.3,61.2,47.5,61.2,47z"/>
		<path fill="#FFFFFF" d="M69.7,56.7c0,0.4-0.2,0.8-0.5,1.1c-0.3,0.3-0.7,0.5-1.1,0.5c-0.4,0-0.8-0.2-1.1-0.5
			c-0.3-0.3-0.5-0.7-0.5-1.1c0-0.3,0.1-0.6,0.2-0.8c0.1-0.2,0.3-0.4,0.6-0.6c0.2-0.1,0.5-0.2,0.8-0.2c0.4,0,0.8,0.2,1.1,0.5
			C69.5,55.8,69.7,56.2,69.7,56.7z"/>
		<path fill="#FFFFFF" d="M91.8,41.2l-0.4,1.1c-0.5,0-0.9,0.1-1.1,0.2c-0.3,0.1-0.5,0.3-0.6,0.6c-0.2,0.3-0.3,0.7-0.5,1.2l-3.9,12.6
			c-0.4,1.2-0.8,2.3-1.3,3.2c-0.5,0.9-1.1,1.6-1.7,2.2c-0.7,0.6-1.3,1-2.1,1.3c-0.7,0.3-1.5,0.4-2.3,0.4c-0.7,0-1.4-0.1-2-0.3
			s-1.1-0.5-1.5-0.9c-0.4-0.4-0.6-0.8-0.6-1.2c0-0.4,0.1-0.7,0.4-1c0.3-0.3,0.6-0.4,1-0.4c0.5,0,0.8,0.1,1.1,0.4
			c0.2,0.3,0.4,0.6,0.6,1c0.1,0.4,0.3,0.6,0.5,0.8c0.2,0.2,0.5,0.3,0.9,0.3c0.7,0,1.3-0.3,1.7-1c0.4-0.6,0.8-1.5,1.1-2.6l4.4-14.5
			c0.1-0.5,0.2-0.8,0.2-1.1c0-0.3-0.1-0.5-0.3-0.8c-0.2-0.3-0.6-0.4-1.2-0.4l0.3-1.1H91.8z"/>
		<path fill="#FFFFFF" d="M110.5,41.2l-0.4,1.1c-0.6,0-1.1,0.2-1.5,0.4c-0.4,0.2-0.7,0.5-0.9,0.9c-0.2,0.4-0.4,0.9-0.6,1.4l-2,7.1
			c-0.2,0.8-0.4,1.5-0.7,2.1c-0.3,0.7-0.6,1.3-1.1,1.9c-0.5,0.6-1.2,1.1-2,1.5s-1.9,0.6-3.2,0.6c-1.1,0-2.1-0.2-3-0.5
			c-0.9-0.3-1.6-0.8-2.1-1.4c-0.5-0.6-0.8-1.3-0.8-2.1c0-0.4,0-0.8,0.1-1.2c0.1-0.4,0.2-0.9,0.4-1.4l2.2-7.1
			c0.2-0.6,0.3-0.9,0.3-1.1c0-0.5-0.2-0.8-0.5-0.9c-0.3-0.1-0.7-0.2-1.2-0.2l0.4-1.1h7.6l-0.4,1.1c-0.6,0-1,0-1.3,0.1
			c-0.3,0.1-0.5,0.2-0.7,0.5s-0.4,0.7-0.6,1.2l-2.6,8.5c-0.2,0.8-0.4,1.5-0.4,1.9c0,0.7,0.3,1.3,0.9,1.8c0.6,0.4,1.3,0.7,2.2,0.7
			c0.9,0,1.6-0.2,2.3-0.5c0.6-0.3,1.1-0.8,1.5-1.3s0.7-1,0.9-1.6c0.2-0.5,0.4-1,0.5-1.5l2.1-7.4c0.1-0.4,0.2-0.7,0.2-0.9
			c0-0.6-0.2-1-0.6-1.2c-0.4-0.2-0.9-0.3-1.5-0.3l0.4-1.1H110.5z"/>
		<path fill="#FFFFFF" d="M128.9,41.2l-0.3,1.1c-0.7,0.1-1.2,0.3-1.6,0.6c-0.4,0.3-0.8,1.1-1.1,2.2l-4,12.9h-1.6l-5.7-12.6l-2.6,8.6
			c-0.2,0.6-0.3,1-0.3,1.3c0,0.6,0.2,0.9,0.6,1.1c0.4,0.2,0.9,0.3,1.4,0.3l-0.4,1.1h-5.6l0.3-1.1c0.8-0.1,1.3-0.4,1.7-1
			c0.4-0.6,0.7-1.3,0.9-2.1l3-9.9l-0.3-0.5c-0.3-0.4-0.5-0.7-0.8-0.8c-0.2-0.1-0.7-0.1-1.4-0.1l0.4-1.1h4.6l5.6,12.5l2.4-7.9
			c0-0.2,0.1-0.4,0.2-0.6s0.2-0.5,0.2-0.7c0.1-0.2,0.1-0.4,0.1-0.6c0-0.4-0.2-0.7-0.5-1c-0.3-0.3-0.9-0.5-1.6-0.5l0.4-1.1H128.9z"/>
		<path fill="#FFFFFF" d="M143.4,45.2h-1.2c-0.4-0.9-0.7-1.6-1.1-2c-0.3-0.4-0.7-0.6-1-0.7c-0.4-0.1-0.9-0.1-1.7-0.1h-1.8l-1.9,6.2
			h0.8c0.8,0,1.4-0.1,1.8-0.2c0.4-0.2,0.7-0.4,1-0.7c0.2-0.3,0.4-0.8,0.6-1.5h1.2l-2,6.6h-1.2c0.2-0.6,0.3-1.1,0.3-1.5
			c0-0.6-0.2-1-0.6-1.1c-0.4-0.2-0.9-0.2-1.4-0.2h-0.8l-1.5,4.8c-0.1,0.4-0.2,0.7-0.2,1c0,0.2,0.1,0.4,0.2,0.6s0.4,0.3,0.8,0.4
			c0.4,0.1,1,0.1,1.6,0.1c1.5,0,2.6-0.3,3.4-0.9s1.4-1.4,2-2.4h1.2l-1.4,4.5h-13.5l0.4-1.1c0.6,0,1-0.2,1.3-0.5
			c0.3-0.3,0.5-0.8,0.6-1.4l3.2-10.5c0.1-0.5,0.2-0.8,0.2-1c0-0.4-0.2-0.7-0.5-0.9c-0.3-0.2-0.7-0.3-1.1-0.3l0.3-1.1h11.7
			L143.4,45.2z"/>
	</g>
	<g>
		<g>
			<rect x="114" y="160.8" fill="#FFFFFF" width="21.2" height="2.8"/>
		</g>
		<g>
			<rect x="9.6" y="160.8" fill="#FFFFFF" width="21.2" height="2.8"/>
		</g>
		<g>
			<g>
				<path fill="#FFFFFF" d="M41.7,156.6c0.7,0.1,1.4,0.2,2.1,0.2c0.7,0,1.4,0.1,2.1,0.1s1.7-0.1,2.5-0.2c0.8-0.1,1.5-0.1,1.7-0.1
					c0.2,0,0.4,0.1,0.4,0.4c0,1.5-2.8,2.5-5.4,2.5c-0.7,0-1.4-0.1-1.9-0.3l-0.1,1.8c0.8-0.5,1.7-0.7,2.7-0.7c2.8,0,5.2,1.5,5.2,4.5
					c0,3.2-2.7,4.6-5.5,4.6c-2.3,0-5.1-0.8-5.1-3.5c0-1.1,0.8-2,1.9-2c1,0,1.8,0.5,1.8,1.6c0,0.9-0.7,1.4-1.6,1.4
					c0.4,0.5,1.2,0.8,1.8,0.8c2.1,0,2.9-1.1,2.9-3.1c0-1.5-0.7-2.6-2.3-2.6c-0.7,0-1.3,0.1-1.8,0.8h-2L41.7,156.6z"/>
			</g>
			<g>
				<path fill="#FFFFFF" d="M52.7,163.6v-2.3h9.5v2.3H52.7z"/>
			</g>
			<g>
				<path fill="#FFFFFF" d="M71.5,163.5c-1.1,0.8-1.8,0.9-3.1,0.9c-2.4,0-4.2-1.3-4.2-3.7c0-2.9,2.6-4.1,5.2-4.1
					c4.1,0,5.9,2.8,5.9,5.9c0,4.2-2.1,7-6.3,7h0c-1.6,0-4.2-0.5-4.2-2.6c0-1.3,0.8-1.8,1.8-1.8c1.1,0,1.8,0.6,1.8,1.3
					c0,0.6-0.2,0.9-0.8,1.2c0.3,0.2,0.7,0.3,1,0.3c2.1,0,2.9-1.5,2.9-3.8V163.5z M67.9,160.5c0,1.6,0.6,2.3,1.7,2.3s1.7-0.7,1.7-2.3
					c0-1.6-0.6-2.3-1.7-2.3S67.9,158.9,67.9,160.5z"/>
			</g>
			<g>
				<g>
					<path fill="#FFFFFF" d="M82,160.9L82,160.9c0.6-1.1,1.5-1.6,2.6-1.6c2.7,0,3.5,2.3,3.5,4.4c0,2.2-0.8,4.4-3.5,4.4
						c-1.1,0-2.1-0.4-2.4-1.2l0,0v2.5c0,0.5,0.1,0.8,0.6,0.8h0.7v1.4h-5.6v-1.4h0.7c0.5,0,0.6-0.3,0.6-0.8v-7.7
						c0-0.5-0.1-0.8-0.6-0.8h-0.7v-1.4H82V160.9z M82.1,163.9c0,1.7,0.4,2.8,1.4,2.8c1,0,1.4-1.1,1.4-2.8c0-1.7-0.4-2.8-1.4-2.8
						C82.5,161,82.1,162.1,82.1,163.9z"/>
				</g>
				<g>
					<path fill="#FFFFFF" d="M93.5,159.6v1.4h0c0.7-1.1,1.6-1.7,2.9-1.7c1.1,0,2,0.5,2.4,1.6c0.6-1,1.6-1.6,2.8-1.6
						c1.8,0,2.7,0.9,2.7,2.6v3.8c0,0.5,0.1,0.8,0.6,0.8h0.6v1.4h-5.1v-1.4h0.3c0.5,0,0.6-0.3,0.6-0.8v-3.3c0-0.6-0.3-1.5-1.1-1.5
						c-1,0-1.3,0.6-1.3,1.3v3.8c0,0.3,0.1,0.4,0.6,0.4h0.2v1.4h-4.7v-1.4h0.2c0.5,0,0.6-0.2,0.6-0.8v-3.3c0-0.9-0.1-1.5-1.1-1.5
						c-1,0-1.3,0.8-1.3,1.6v3.6c0,0.2,0.1,0.4,0.6,0.4h0.3v1.4h-5.3v-1.4h0.8c0.5,0,0.6-0.3,0.6-0.8v-4c0-0.5-0.1-0.8-0.6-0.8h-0.7
						v-1.4H93.5z"/>
				</g>
			</g>
		</g>
	</g>
</g>
<g>
	<text transform="matrix(1 0 0 1 299.83 11.5577)"><tspan x="0" y="0" fill="#FFFFFF" font-family="'SourceSansPro-Bold'" font-size="13.925" letter-spacing="1">P</tspan><tspan x="9.7" y="0" fill="#FFFFFF" font-family="'SourceSansPro-Bold'" font-size="13.925" letter-spacing="1">R</tspan><tspan x="19.5" y="0" fill="#FFFFFF" font-family="'SourceSansPro-Bold'" font-size="13.925" letter-spacing="1">OF</tspan><tspan x="38.8" y="0" fill="#FFFFFF" font-family="'SourceSansPro-Bold'" font-size="13.925" letter-spacing="1">E</tspan><tspan x="47.6" y="0" fill="#FFFFFF" font-family="'SourceSansPro-Bold'" font-size="13.925" letter-spacing="1">S</tspan><tspan x="56.3" y="0" fill="#FFFFFF" font-family="'SourceSansPro-Bold'" font-size="13.925" letter-spacing="1">SIONAL</tspan><tspan x="14" y="16.7" fill="#FFFFFF" font-family="'SourceSansPro-Bold'" font-size="13.925" letter-spacing="1">RE</tspan><tspan x="32.6" y="16.7" fill="#FFFFFF" font-family="'SourceSansPro-Bold'" font-size="13.925">C</tspan><tspan x="41.7" y="16.7" fill="#FFFFFF" font-family="'SourceSansPro-Bold'" font-size="13.925" letter-spacing="1">E</tspan><tspan x="50.5" y="16.7" fill="#FFFFFF" font-family="'SourceSansPro-Bold'" font-size="13.925" letter-spacing="1">P</tspan><tspan x="60" y="16.7" fill="#FFFFFF" font-family="'SourceSansPro-Bold'" font-size="13.925" letter-spacing="1">TI</tspan><tspan x="74.4" y="16.7" fill="#FFFFFF" font-family="'SourceSansPro-Bold'" font-size="13.925" letter-spacing="1">O</tspan><tspan x="85.2" y="16.7" fill="#FFFFFF" font-family="'SourceSansPro-Bold'" font-size="13.925">N</tspan></text>
	<g>
		<g>
			<path fill="#FFFFFF" d="M308.4,136.7V130h5.6c4.4,0,7.1-1.2,7.1-4V91.5h-12.9v-6.9c8.2-0.4,13.5-1.8,17.6-9.1h8.4V126
				c0,2.8,2.6,4,7.1,4h5.2v6.7H308.4z"/>
		</g>
		<g>
			<path fill="#FFFFFF" d="M349.7,103.4V75.6h7.2v7.2h0.2c3.2-4.3,6.7-7.7,12.5-7.7c4.7,0,8.7,1.2,12.2,2.4c3.5,1.2,6.7,2.4,9.6,2.4
				c2.7,0,3.8-1.8,4.5-4.3h5.9c0,18.8-21.6,22.4-21.6,56.3v4.8h-14.1v-6.2c0-22.7,10.5-26.8,24.3-43.3l-0.2-0.2
				c-2.6,1.3-5.2,2.1-10,2.1c-3,0-5.3-0.5-7.4-0.9c-2.2-0.4-4.3-0.8-7.4-0.8c-5.9,0-8.7,5.1-8.7,13.5v2.5H349.7z"/>
		</g>
	</g>
	<rect x="272" y="32.7" fill="none" width="152.3" height="137.2"/>
	<text transform="matrix(1 0 0 1 282.8618 57.8087)"><tspan x="0" y="0" fill="#FFFFFF" font-family="'Baskerville-SemiBoldItalic'" font-size="25.3138">WED. JUN</tspan><tspan x="121.2" y="0" fill="#FFFFFF" font-family="'Baskerville-SemiBoldItalic'" font-size="25.3138">E</tspan></text>
	<g>
		<line fill="none" stroke="#FFFFFF" stroke-width="2.8387" stroke-miterlimit="10" x1="412.2" y1="162.1" x2="391.1" y2="162.1"/>
		<line fill="none" stroke="#FFFFFF" stroke-width="2.8387" stroke-miterlimit="10" x1="307.8" y1="162.1" x2="286.7" y2="162.1"/>
		<g>
			<rect x="316.8" y="152.2" fill="none" width="12.4" height="22"/>
			<text transform="matrix(1 0 0 1 316.839 169.0713)" fill="#FFFFFF" font-family="'ClarendonLTStd-Bold'" font-size="20.3264">5</text>
			<rect x="328.4" y="150.2" fill="none" width="12.2" height="22"/>
			<text transform="matrix(1 0 0 1 328.4464 167.0811)" fill="#FFFFFF" font-family="'ClarendonLTStd-Bold'" font-size="20.3264">−</text>
			<rect x="340.6" y="152.2" fill="none" width="12.4" height="22"/>
			<text transform="matrix(1 0 0 1 340.6418 169.0713)" fill="#FFFFFF" font-family="'ClarendonLTStd-Bold'" font-size="20.3264">9</text>
			<g>
				<g>
					<path fill="#FFFFFF" d="M359.1,160.8L359.1,160.8c0.6-1.1,1.5-1.6,2.6-1.6c2.7,0,3.5,2.3,3.5,4.4c0,2.2-0.8,4.4-3.5,4.4
						c-1.1,0-2.1-0.4-2.4-1.2l0,0v2.5c0,0.5,0.1,0.8,0.6,0.8h0.7v1.4H355v-1.4h0.7c0.5,0,0.6-0.3,0.6-0.8v-7.7
						c0-0.5-0.1-0.8-0.6-0.8h-0.7v-1.4h4.1V160.8z M359.2,163.8c0,1.7,0.4,2.8,1.4,2.8c1,0,1.4-1.1,1.4-2.8c0-1.7-0.4-2.8-1.4-2.8
						C359.6,160.9,359.2,162,359.2,163.8z"/>
				</g>
				<g>
					<path fill="#FFFFFF" d="M370.6,159.5v1.4h0c0.7-1.1,1.6-1.7,2.9-1.7c1.1,0,2,0.5,2.4,1.6c0.6-1,1.6-1.6,2.8-1.6
						c1.8,0,2.7,0.9,2.7,2.6v3.8c0,0.5,0.1,0.8,0.6,0.8h0.6v1.4h-5.1v-1.4h0.3c0.5,0,0.6-0.3,0.6-0.8v-3.3c0-0.6-0.3-1.5-1.1-1.5
						c-1,0-1.3,0.6-1.3,1.3v3.8c0,0.3,0.1,0.4,0.6,0.4h0.2v1.4h-4.7v-1.4h0.2c0.5,0,0.6-0.2,0.6-0.8v-3.3c0-0.9-0.1-1.5-1.1-1.5
						c-1,0-1.3,0.8-1.3,1.6v3.6c0,0.2,0.1,0.4,0.6,0.4h0.3v1.4h-5.3v-1.4h0.8c0.5,0,0.6-0.3,0.6-0.8v-4c0-0.5-0.1-0.8-0.6-0.8h-0.7
						v-1.4H370.6z"/>
				</g>
			</g>
		</g>
	</g>
</g>
</svg>
