<?xml version="1.0" encoding="utf-8"?>
<!-- Generator: Adobe Illustrator 18.1.1, SVG Export Plug-In . SVG Version: 6.00 Build 0)  -->
<svg version="1.1" id="Layer_1" xmlns="http://www.w3.org/2000/svg" xmlns:xlink="http://www.w3.org/1999/xlink" x="0px" y="0px"
	 viewBox="0 0 141.6 176.5" enable-background="new 0 0 141.6 176.5" xml:space="preserve">
<g>
	<g>
		<path fill="#FFFFFF" d="M34.3,4.2H40v1.7h-3.7V8h3.1v1.7h-3.1v3.5h-2.1V4.2z"/>
		<path fill="#FFFFFF" d="M47.4,13.3L45.7,10h-1.1v3.3h-2.1V4.2h3.3c1.9,0,3.5,0.7,3.5,2.8c0,1.3-0.7,2.2-1.6,2.6l2,3.6H47.4z
			 M44.6,8.4h1c1.1,0,1.7-0.5,1.7-1.3s-0.6-1.2-1.7-1.2h-1V8.4z"/>
		<path fill="#FFFFFF" d="M52.3,4.2h2.1v9.1h-2.1V4.2z"/>
		<path fill="#FFFFFF" d="M57.8,4.2h5.7v1.7h-3.6v1.8h3.1v1.7h-3.1v2.1h3.8v1.7h-5.8V4.2z"/>
		<path fill="#FFFFFF" d="M66.6,4.2h2.1l2.4,4.5l0.9,2H72c-0.1-1-0.3-2.2-0.3-3.3V4.2h1.9v9.1h-2.1l-2.4-4.5l-0.9-2h-0.1
			c0.1,1,0.3,2.2,0.3,3.3v3.2h-2V4.2z"/>
		<path fill="#FFFFFF" d="M77.1,4.2h2.6c2.8,0,4.6,1.4,4.6,4.5s-1.8,4.6-4.4,4.6h-2.7V4.2z M79.5,11.6c1.5,0,2.6-0.8,2.6-2.9
			s-1-2.8-2.6-2.8h-0.4v5.8H79.5z"/>
		<path fill="#FFFFFF" d="M87.8,10.7c0.6,0.6,1.5,0.9,2.2,0.9c0.8,0,1.3-0.3,1.3-0.9c0-0.6-0.5-0.8-1.3-1.1l-1.2-0.5
			c-0.9-0.4-1.8-1.2-1.8-2.5c0-1.5,1.3-2.7,3.2-2.7c1,0,2.1,0.4,2.9,1.2l-1,1.3c-0.6-0.5-1.2-0.7-1.9-0.7c-0.7,0-1.2,0.3-1.2,0.8
			c0,0.6,0.6,0.8,1.4,1.1l1.2,0.5c1.1,0.4,1.8,1.2,1.8,2.5c0,1.5-1.3,2.8-3.4,2.8c-1.2,0-2.4-0.4-3.4-1.3L87.8,10.7z"/>
		<path fill="#FFFFFF" d="M107.7,13.4c-0.8-0.2-1.5-0.5-2.3-0.9c-0.8,0.6-1.7,0.9-2.8,0.9c-2,0-3-1.2-3-2.6c0-1.3,0.8-2,1.7-2.6
			c-0.3-0.7-0.6-1.3-0.6-1.9c0-1.3,0.9-2.4,2.5-2.4c1.4,0,2.2,0.8,2.2,2.1c0,1.2-0.9,1.9-1.9,2.6c0.5,0.6,1.2,1.2,1.8,1.7
			c0.5-0.6,0.8-1.3,1-2.2h1.9c-0.3,1.1-0.8,2.1-1.5,3.1c0.6,0.3,1.1,0.5,1.6,0.6L107.7,13.4z M102.8,11.9c0.4,0,0.8-0.1,1.2-0.4
			c-0.7-0.6-1.4-1.2-1.9-1.9c-0.4,0.3-0.6,0.7-0.6,1.1C101.5,11.4,102,11.9,102.8,11.9z M102.6,7.5c0.7-0.4,1.2-0.8,1.2-1.4
			c0-0.4-0.2-0.7-0.6-0.7c-0.5,0-0.8,0.4-0.8,1C102.3,6.7,102.4,7.1,102.6,7.5z"/>
		<path fill="#FFFFFF" d="M24.7,20.9h5.7v1.7h-3.7v2.1h3.1v1.7h-3.1V30h-2.1V20.9z"/>
		<path fill="#FFFFFF" d="M36.9,27.8h-2.8L33.6,30h-2.1l2.8-9.1h2.4l2.8,9.1h-2.2L36.9,27.8z M36.5,26.2l-0.2-0.8
			c-0.2-0.9-0.5-2-0.7-2.9h-0.1c-0.2,1-0.5,2-0.7,2.9l-0.2,0.8H36.5z"/>
		<path fill="#FFFFFF" d="M41.8,20.9H44l1.5,4.1l0.5,1.6h0.1l0.5-1.6l1.5-4.1h2.2V30h-1.9v-3.3c0-0.9,0.2-2.2,0.3-3.1h-0.1l-0.7,2.1
			l-1.4,3.5h-0.8l-1.4-3.5l-0.7-2.1h-0.1c0.1,0.9,0.3,2.2,0.3,3.1V30h-1.9V20.9z"/>
		<path fill="#FFFFFF" d="M53.7,20.9h2.1V30h-2.1V20.9z"/>
		<path fill="#FFFFFF" d="M59.1,20.9h2.1v7.3h3.6V30h-5.6V20.9z"/>
		<path fill="#FFFFFF" d="M67.9,26.7l-2.7-5.8h2.2l0.8,2.1c0.2,0.7,0.5,1.3,0.7,2h0.1c0.2-0.7,0.5-1.3,0.8-2l0.8-2.1h2.1l-2.7,5.8
			V30h-2V26.7z"/>
		<path fill="#FFFFFF" d="M79,20.9h2.1l2.4,4.5l0.9,2h0.1c-0.1-1-0.3-2.2-0.3-3.3v-3.2h1.9V30H84l-2.4-4.5l-0.9-2h-0.1
			c0.1,1,0.3,2.2,0.3,3.3V30h-2V20.9z"/>
		<path fill="#FFFFFF" d="M89.5,20.9h2.1V30h-2.1V20.9z"/>
		<path fill="#FFFFFF" d="M98.9,20.7c1.3,0,2.2,0.6,2.8,1.2l-1.1,1.3c-0.5-0.4-0.9-0.7-1.7-0.7c-1.4,0-2.4,1.1-2.4,2.9
			c0,1.9,0.8,2.9,2.6,2.9c0.4,0,0.7-0.1,1-0.3v-1.6h-1.5v-1.7h3.3V29c-0.7,0.6-1.8,1.1-3,1.1c-2.4,0-4.4-1.6-4.4-4.6
			C94.4,22.5,96.4,20.7,98.9,20.7z"/>
		<path fill="#FFFFFF" d="M105,20.9h2.1v3.5h3.1v-3.5h2V30h-2v-3.8H107V30H105V20.9z"/>
		<path fill="#FFFFFF" d="M117.3,22.6h-2.5v-1.7h7v1.7h-2.5V30h-2V22.6z"/>
	</g>
	<g>
		<path fill="#FFFFFF" d="M22.4,41.9l-1.5,4.8h-1.2c0.1-0.4,0.1-0.8,0.1-1.1c0-1.1-0.2-1.7-0.7-2c-0.5-0.3-1.1-0.4-1.8-0.4h-1.5
			l-3.7,12.1c-0.1,0.5-0.2,0.8-0.2,1.1c0,0.5,0.2,0.8,0.5,0.9c0.3,0.2,0.7,0.2,1,0.2h0.6l-0.4,1.1H5.5l0.3-1.1h0.4
			c0.8,0,1.4-0.1,1.7-0.4c0.3-0.2,0.5-0.7,0.8-1.5l3.8-12.5h-0.9h-0.3c-0.9,0-1.7,0.2-2.4,0.7s-1.5,1.4-2.2,2.9H5.5l1.5-4.8H22.4z"
			/>
		<path fill="#FFFFFF" d="M42.2,41.9L41.8,43c-0.5,0-1,0-1.2,0.1s-0.5,0.2-0.7,0.5s-0.3,0.7-0.5,1.2l-3.2,10.4
			C36.1,55.7,36,56,36,56.3c0,0.5,0.2,0.8,0.5,0.9c0.4,0.2,0.7,0.3,1.1,0.3l-0.3,1.1h-7.5l0.4-1.1c0.6,0,1-0.1,1.3-0.2
			c0.3-0.1,0.5-0.3,0.7-0.5c0.2-0.3,0.3-0.7,0.5-1.2l1.6-5.2h-7.1l-1.5,4.8c-0.1,0.5-0.2,0.9-0.2,1.1c0,0.5,0.2,0.8,0.5,1
			c0.4,0.2,0.7,0.3,1,0.3l-0.4,1.1h-6.9l0.4-1.1c0.5,0,0.8-0.1,1.1-0.3s0.5-0.4,0.6-0.6c0.1-0.3,0.2-0.6,0.4-1l3.2-10.3
			c0.2-0.5,0.2-0.9,0.2-1c0-0.4-0.1-0.8-0.4-0.9S24.5,43,24.2,43l0.4-1.1h7.2L31.4,43c-0.6,0-1,0-1.3,0.1s-0.5,0.2-0.7,0.5
			s-0.3,0.7-0.5,1.2l-1.3,4.3h7.1l1.2-3.9c0.2-0.5,0.2-0.8,0.2-1c0-0.4-0.1-0.8-0.4-1S35,43,34.6,43l0.4-1.1H42.2z"/>
		<path fill="#FFFFFF" d="M60.8,41.9L60.5,43c-0.6,0-1.1,0.2-1.5,0.4c-0.4,0.2-0.7,0.5-0.9,0.9c-0.2,0.4-0.4,0.9-0.6,1.4l-2,7.1
			c-0.2,0.8-0.4,1.5-0.7,2.1c-0.3,0.7-0.6,1.3-1.1,1.9c-0.5,0.6-1.2,1.1-2,1.5c-0.9,0.4-1.9,0.6-3.2,0.6c-1.1,0-2.1-0.2-3-0.5
			c-0.9-0.3-1.6-0.8-2.1-1.4c-0.5-0.6-0.8-1.3-0.8-2.1c0-0.4,0-0.8,0.1-1.2c0.1-0.4,0.2-0.9,0.4-1.4l2.2-7.1
			c0.2-0.6,0.3-0.9,0.3-1.1c0-0.5-0.2-0.8-0.5-0.9c-0.3-0.1-0.8-0.2-1.2-0.2l0.4-1.1h7.6L51.4,43c-0.6,0-1,0-1.3,0.1
			c-0.3,0.1-0.5,0.2-0.7,0.5s-0.4,0.7-0.5,1.2l-2.6,8.5c-0.2,0.8-0.4,1.5-0.4,1.9c0,0.7,0.3,1.3,0.9,1.8c0.6,0.4,1.3,0.7,2.2,0.7
			c0.9,0,1.6-0.2,2.3-0.5s1.1-0.8,1.5-1.3c0.4-0.5,0.7-1,0.9-1.6s0.4-1,0.5-1.5l2.1-7.4c0.1-0.4,0.2-0.7,0.2-0.9
			c0-0.6-0.2-1-0.6-1.2c-0.4-0.2-0.9-0.3-1.5-0.3l0.4-1.1H60.8z"/>
		<path fill="#FFFFFF" d="M62.4,57.4c0,0.4-0.2,0.8-0.5,1.1c-0.3,0.3-0.7,0.5-1.1,0.5s-0.8-0.2-1.1-0.5c-0.3-0.3-0.5-0.7-0.5-1.1
			c0-0.3,0.1-0.6,0.2-0.8c0.1-0.2,0.3-0.4,0.6-0.6c0.2-0.1,0.5-0.2,0.8-0.2c0.4,0,0.8,0.2,1.1,0.5C62.3,56.5,62.4,56.9,62.4,57.4z"
			/>
		<path fill="#FFFFFF" d="M84.5,41.9L84.1,43c-0.5,0-0.9,0.1-1.1,0.2s-0.5,0.3-0.6,0.6c-0.2,0.3-0.3,0.7-0.5,1.2L78,57.4
			c-0.4,1.2-0.8,2.3-1.3,3.2c-0.5,0.9-1.1,1.6-1.7,2.2c-0.7,0.6-1.3,1-2.1,1.3c-0.7,0.3-1.5,0.4-2.3,0.4c-0.7,0-1.4-0.1-2-0.3
			c-0.6-0.2-1.1-0.5-1.5-0.9c-0.4-0.4-0.5-0.8-0.5-1.2c0-0.4,0.1-0.7,0.4-1s0.6-0.4,1-0.4c0.5,0,0.8,0.1,1.1,0.4
			c0.2,0.3,0.4,0.6,0.6,1c0.1,0.4,0.3,0.6,0.5,0.8c0.2,0.2,0.5,0.3,0.9,0.3c0.7,0,1.3-0.3,1.7-1s0.8-1.5,1.1-2.6l4.4-14.5
			c0.1-0.5,0.2-0.8,0.2-1.1c0-0.3-0.1-0.5-0.3-0.8c-0.2-0.3-0.6-0.4-1.2-0.4l0.3-1.1H84.5z"/>
		<path fill="#FFFFFF" d="M103.2,41.9l-0.4,1.1c-0.6,0-1.1,0.2-1.5,0.4c-0.4,0.2-0.7,0.5-0.9,0.9c-0.2,0.4-0.4,0.9-0.6,1.4l-2,7.1
			c-0.2,0.8-0.4,1.5-0.7,2.1c-0.3,0.7-0.6,1.3-1.1,1.9c-0.5,0.6-1.2,1.1-2,1.5c-0.9,0.4-1.9,0.6-3.2,0.6c-1.1,0-2.1-0.2-3-0.5
			c-0.9-0.3-1.6-0.8-2.1-1.4c-0.5-0.6-0.8-1.3-0.8-2.1c0-0.4,0-0.8,0.1-1.2c0.1-0.4,0.2-0.9,0.4-1.4l2.2-7.1
			c0.2-0.6,0.3-0.9,0.3-1.1c0-0.5-0.2-0.8-0.5-0.9C87,43.1,86.6,43,86.2,43l0.4-1.1h7.6L93.8,43c-0.6,0-1,0-1.3,0.1
			c-0.3,0.1-0.5,0.2-0.7,0.5s-0.4,0.7-0.5,1.2l-2.6,8.5c-0.2,0.8-0.4,1.5-0.4,1.9c0,0.7,0.3,1.3,0.9,1.8c0.6,0.4,1.3,0.7,2.2,0.7
			c0.9,0,1.6-0.2,2.3-0.5s1.1-0.8,1.5-1.3c0.4-0.5,0.7-1,0.9-1.6s0.4-1,0.5-1.5l2.1-7.4c0.1-0.4,0.2-0.7,0.2-0.9
			c0-0.6-0.2-1-0.6-1.2c-0.4-0.2-0.9-0.3-1.5-0.3l0.4-1.1H103.2z"/>
		<path fill="#FFFFFF" d="M121.6,41.9l-0.3,1.1c-0.7,0.1-1.2,0.3-1.6,0.6c-0.4,0.3-0.8,1.1-1.1,2.2l-4,12.9H113l-5.7-12.6l-2.6,8.6
			c-0.2,0.6-0.3,1-0.3,1.3c0,0.6,0.2,0.9,0.6,1.1c0.4,0.2,0.9,0.3,1.4,0.3l-0.4,1.1h-5.6l0.3-1.1c0.8-0.1,1.3-0.4,1.7-1
			c0.4-0.6,0.7-1.3,0.9-2.1l3-9.9l-0.3-0.5c-0.3-0.4-0.5-0.7-0.8-0.8c-0.2-0.1-0.7-0.1-1.4-0.1l0.4-1.1h4.6l5.6,12.5l2.4-7.9
			c0-0.2,0.1-0.4,0.2-0.6c0.1-0.3,0.1-0.5,0.2-0.7s0.1-0.4,0.1-0.6c0-0.4-0.2-0.7-0.5-1c-0.3-0.3-0.9-0.5-1.6-0.5l0.4-1.1H121.6z"/>
		<path fill="#FFFFFF" d="M136.1,46h-1.2c-0.4-0.9-0.7-1.6-1.1-2s-0.7-0.6-1-0.7c-0.4-0.1-0.9-0.1-1.7-0.1h-1.8l-1.9,6.2h0.8
			c0.8,0,1.4-0.1,1.8-0.2c0.4-0.2,0.7-0.4,1-0.7s0.4-0.8,0.6-1.5h1.2l-2,6.6h-1.2c0.2-0.6,0.3-1.1,0.3-1.5c0-0.6-0.2-1-0.6-1.1
			c-0.4-0.2-0.9-0.2-1.4-0.2H127l-1.5,4.8c-0.1,0.4-0.2,0.7-0.2,1c0,0.2,0.1,0.4,0.2,0.6c0.1,0.2,0.4,0.3,0.8,0.4s1,0.1,1.6,0.1
			c1.5,0,2.6-0.3,3.4-0.9c0.8-0.6,1.4-1.4,2-2.4h1.2l-1.4,4.5h-13.5l0.4-1.1c0.6,0,1-0.2,1.3-0.5c0.3-0.3,0.5-0.8,0.6-1.4l3.2-10.5
			c0.1-0.5,0.2-0.8,0.2-1c0-0.4-0.2-0.7-0.5-0.9c-0.3-0.2-0.7-0.3-1.1-0.3l0.3-1.1H136L136.1,46z"/>
	</g>
	<g>
		<g>
			<path fill="#FFFFFF" d="M23.8,137.1v-6.5h5.4c4.3,0,6.9-1.2,6.9-3.9V93.4H23.5v-6.7c7.9-0.4,13.1-1.8,17-8.8h8.1v48.8
				c0,2.7,2.5,3.9,6.9,3.9h5v6.5H23.8z"/>
		</g>
		<g>
			<path fill="#FFFFFF" d="M75.7,108.8c-5.5-3.3-9.8-7.3-9.8-14.2c0-14.3,13.6-18.2,25.5-18.2c8.6,0,21.8,4.5,21.8,15.1
				c0,6.3-5.1,10.4-10.4,12.6c6.8,2.6,13.1,8.5,13.1,16.2c0,13.1-14.1,18.2-25.5,18.2c-9.6,0-26.9-3.1-26.9-15.4
				C63.6,115.6,69.2,111.4,75.7,108.8z M89.4,131.3c5.7,0,14.7-1.4,14.7-8.4c0-6.8-16.6-9.8-20.8-11.2c-4,1.3-8.7,3.4-8.7,9.6
				C74.6,128.5,83.1,131.3,89.4,131.3z M96.3,101.9c3.1-1.9,6.8-4.3,6.8-9.9c0-6.8-8.7-9.1-14.1-9.1c-5.2,0-11.2,2.3-11.2,8.4
				C77.8,98.5,89,100.7,96.3,101.9z"/>
		</g>
	</g>
	<g>
		<g>
			<rect x="114.9" y="161.5" fill="#FFFFFF" width="21.2" height="2.8"/>
		</g>
		<g>
			<rect x="10.5" y="161.5" fill="#FFFFFF" width="21.2" height="2.8"/>
		</g>
		<g>
			<g>
				<path fill="#FFFFFF" d="M42.6,157.3c0.7,0.1,1.4,0.2,2.1,0.2c0.7,0,1.4,0.1,2.1,0.1s1.7-0.1,2.5-0.2c0.8-0.1,1.5-0.1,1.7-0.1
					c0.2,0,0.4,0.1,0.4,0.4c0,1.5-2.8,2.5-5.4,2.5c-0.7,0-1.4-0.1-1.9-0.3l-0.1,1.8c0.8-0.5,1.7-0.7,2.7-0.7c2.8,0,5.2,1.5,5.2,4.5
					c0,3.2-2.7,4.6-5.5,4.6c-2.3,0-5.1-0.8-5.1-3.5c0-1.1,0.8-2,1.9-2c1,0,1.8,0.5,1.8,1.6c0,0.9-0.7,1.4-1.6,1.4
					c0.4,0.5,1.2,0.8,1.8,0.8c2.1,0,2.9-1.1,2.9-3.1c0-1.5-0.7-2.6-2.3-2.6c-0.7,0-1.3,0.1-1.8,0.8h-2L42.6,157.3z"/>
			</g>
			<g>
				<path fill="#FFFFFF" d="M53.6,164.3V162h9.5v2.3H53.6z"/>
			</g>
			<g>
				<path fill="#FFFFFF" d="M72.4,164.2c-1.1,0.8-1.8,0.9-3.1,0.9c-2.4,0-4.2-1.3-4.2-3.7c0-2.9,2.6-4.1,5.2-4.1
					c4.1,0,5.9,2.8,5.9,5.9c0,4.2-2.1,7-6.3,7h0c-1.6,0-4.2-0.5-4.2-2.6c0-1.3,0.8-1.8,1.8-1.8c1.1,0,1.8,0.6,1.8,1.3
					c0,0.6-0.2,0.9-0.8,1.2c0.3,0.2,0.7,0.3,1,0.3c2.1,0,2.9-1.5,2.9-3.8V164.2z M68.8,161.2c0,1.6,0.6,2.3,1.7,2.3
					c1,0,1.7-0.7,1.7-2.3c0-1.6-0.6-2.3-1.7-2.3C69.5,158.9,68.8,159.7,68.8,161.2z"/>
			</g>
			<g>
				<g>
					<path fill="#FFFFFF" d="M82.9,161.6L82.9,161.6c0.6-1.1,1.5-1.6,2.6-1.6c2.7,0,3.5,2.3,3.5,4.4c0,2.2-0.8,4.4-3.5,4.4
						c-1.1,0-2.1-0.4-2.4-1.2l0,0v2.5c0,0.5,0.1,0.8,0.6,0.8h0.7v1.4h-5.6V171h0.7c0.5,0,0.6-0.3,0.6-0.8v-7.7
						c0-0.5-0.1-0.8-0.6-0.8h-0.7v-1.4h4.1V161.6z M83,164.6c0,1.7,0.4,2.8,1.4,2.8c1,0,1.4-1.1,1.4-2.8c0-1.7-0.4-2.8-1.4-2.8
						C83.4,161.7,83,162.8,83,164.6z"/>
				</g>
				<g>
					<path fill="#FFFFFF" d="M94.4,160.3v1.4h0c0.7-1.1,1.6-1.7,2.9-1.7c1.1,0,2,0.5,2.4,1.6c0.6-1,1.6-1.6,2.8-1.6
						c1.8,0,2.7,0.9,2.7,2.6v3.8c0,0.5,0.1,0.8,0.6,0.8h0.6v1.4h-5.1v-1.4h0.3c0.5,0,0.6-0.3,0.6-0.8v-3.3c0-0.6-0.3-1.5-1.1-1.5
						c-1,0-1.3,0.6-1.3,1.3v3.8c0,0.3,0.1,0.4,0.6,0.4h0.2v1.4h-4.7v-1.4h0.2c0.5,0,0.6-0.2,0.6-0.8v-3.3c0-0.9-0.1-1.5-1.1-1.5
						c-1,0-1.3,0.8-1.3,1.6v3.6c0,0.2,0.1,0.4,0.6,0.4h0.3v1.4h-5.3v-1.4H91c0.5,0,0.6-0.3,0.6-0.8v-4c0-0.5-0.1-0.8-0.6-0.8h-0.7
						v-1.4H94.4z"/>
				</g>
			</g>
		</g>
	</g>
</g>
<g>
	<text transform="matrix(1 0 0 1 -242.2886 11.5425)"><tspan x="0" y="0" fill="#FFFFFF" font-family="'SourceSansPro-Bold'" font-size="13.9063">F</tspan><tspan x="8.2" y="0" fill="#FFFFFF" font-family="'SourceSansPro-Bold'" font-size="13.9063" letter-spacing="1">RIENDS &amp;</tspan><tspan x="76.5" y="0" fill="#FFFFFF" font-family="'SourceSansPro-Bold'" font-size="13.9063" letter-spacing="1"> </tspan><tspan x="-9.6" y="16.7" fill="#FFFFFF" font-family="'SourceSansPro-Bold'" font-size="13.9063">F</tspan><tspan x="-1.6" y="16.7" fill="#FFFFFF" font-family="'SourceSansPro-Bold'" font-size="13.9063" letter-spacing="1">A</tspan><tspan x="7.5" y="16.7" fill="#FFFFFF" font-family="'SourceSansPro-Bold'" font-size="13.9063" letter-spacing="1">MI</tspan><tspan x="24.8" y="16.7" fill="#FFFFFF" font-family="'SourceSansPro-Bold'" font-size="13.9063">L</tspan><tspan x="32" y="16.7" fill="#FFFFFF" font-family="'SourceSansPro-Bold'" font-size="13.9063" letter-spacing="1">Y</tspan><tspan x="40.5" y="16.7" fill="#FFFFFF" font-family="'SourceSansPro-Bold'" font-size="13.9063" letter-spacing="1"> </tspan><tspan x="44.7" y="16.7" fill="#FFFFFF" font-family="'SourceSansPro-Bold'" font-size="13.9063" letter-spacing="1">NIGH</tspan><tspan x="81.3" y="16.7" fill="#FFFFFF" font-family="'SourceSansPro-Bold'" font-size="13.9063">T</tspan></text>
	<text transform="matrix(1 0 0 1 -272.8115 56.899)"><tspan x="0" y="0" fill="#FFFFFF" font-family="'Baskerville-SemiBoldItalic'" font-size="25.3138">THU. JUN</tspan><tspan x="116.9" y="0" fill="#FFFFFF" font-family="'Baskerville-SemiBoldItalic'" font-size="25.3138">E</tspan></text>
	<g>
		<g>
			<path fill="#FFFFFF" d="M-251.7,135.4v-6.5h5.4c4.3,0,6.9-1.2,6.9-3.9V91.6H-252V85c7.9-0.4,13.1-1.8,17-8.8h8.1V125
				c0,2.7,2.5,3.9,6.9,3.9h5v6.5H-251.7z"/>
		</g>
		<g>
			<path fill="#FFFFFF" d="M-199.8,107.1c-5.5-3.3-9.8-7.3-9.8-14.2c0-14.3,13.6-18.2,25.5-18.2c8.6,0,21.8,4.5,21.8,15.1
				c0,6.3-5.1,10.4-10.4,12.6c6.8,2.6,13.1,8.5,13.1,16.2c0,13.1-14.1,18.2-25.5,18.2c-9.6,0-26.9-3.1-26.9-15.4
				C-212,113.9-206.3,109.7-199.8,107.1z M-186.1,129.5c5.7,0,14.7-1.4,14.7-8.4c0-6.8-16.6-9.8-20.8-11.2c-4,1.3-8.7,3.4-8.7,9.6
				C-200.9,126.8-192.4,129.5-186.1,129.5z M-179.2,100.2c3.1-1.9,6.8-4.3,6.8-9.9c0-6.8-8.7-9.1-14.1-9.1c-5.2,0-11.2,2.3-11.2,8.4
				C-197.7,96.7-186.5,99-179.2,100.2z"/>
		</g>
	</g>
	<rect x="-281" y="39.3" fill="none" width="140.8" height="137.2"/>
	<g>
		
			<line fill="none" stroke="#FFFFFF" stroke-width="2.8387" stroke-miterlimit="10" x1="-139.5" y1="161.2" x2="-160.7" y2="161.2"/>
		
			<line fill="none" stroke="#FFFFFF" stroke-width="2.8387" stroke-miterlimit="10" x1="-243.9" y1="161.2" x2="-265.1" y2="161.2"/>
		<g>
			<rect x="-234.9" y="151.3" fill="none" width="12.4" height="22"/>
			<text transform="matrix(1 0 0 1 -234.8955 168.1617)" fill="#FFFFFF" font-family="'ClarendonLTStd-Bold'" font-size="20.3264">5</text>
			<rect x="-223.3" y="149.3" fill="none" width="12.2" height="22"/>
			<text transform="matrix(1 0 0 1 -223.2881 166.1714)" fill="#FFFFFF" font-family="'ClarendonLTStd-Bold'" font-size="20.3264">−</text>
			<rect x="-211.1" y="151.3" fill="none" width="12.4" height="22"/>
			<text transform="matrix(1 0 0 1 -211.0928 168.1617)" fill="#FFFFFF" font-family="'ClarendonLTStd-Bold'" font-size="20.3264">9</text>
			<g>
				<g>
					<path fill="#FFFFFF" d="M-192.7,159.9L-192.7,159.9c0.6-1.1,1.5-1.6,2.6-1.6c2.7,0,3.5,2.3,3.5,4.4c0,2.2-0.8,4.4-3.5,4.4
						c-1.1,0-2.1-0.4-2.4-1.2l0,0v2.5c0,0.5,0.1,0.8,0.6,0.8h0.7v1.4h-5.6v-1.4h0.7c0.5,0,0.6-0.3,0.6-0.8v-7.7
						c0-0.5-0.1-0.8-0.6-0.8h-0.7v-1.4h4.1V159.9z M-192.5,162.8c0,1.7,0.4,2.8,1.4,2.8c1,0,1.4-1.1,1.4-2.8c0-1.7-0.4-2.8-1.4-2.8
						C-192.1,160-192.5,161.1-192.5,162.8z"/>
				</g>
				<g>
					<path fill="#FFFFFF" d="M-181.1,158.6v1.4h0c0.7-1.1,1.6-1.7,2.9-1.7c1.1,0,2,0.5,2.4,1.6c0.6-1,1.6-1.6,2.8-1.6
						c1.8,0,2.7,0.9,2.7,2.6v3.8c0,0.5,0.1,0.8,0.6,0.8h0.6v1.4h-5.1v-1.4h0.3c0.5,0,0.6-0.3,0.6-0.8v-3.3c0-0.6-0.3-1.5-1.1-1.5
						c-1,0-1.3,0.6-1.3,1.3v3.8c0,0.3,0.1,0.4,0.6,0.4h0.2v1.4h-4.7v-1.4h0.2c0.5,0,0.6-0.2,0.6-0.8v-3.3c0-0.9-0.1-1.5-1.1-1.5
						c-1,0-1.3,0.8-1.3,1.6v3.6c0,0.2,0.1,0.4,0.6,0.4h0.3v1.4h-5.3v-1.4h0.8c0.5,0,0.6-0.3,0.6-0.8v-4c0-0.5-0.1-0.8-0.6-0.8h-0.7
						v-1.4H-181.1z"/>
				</g>
			</g>
		</g>
	</g>
</g>
</svg>
