<?xml version="1.0" encoding="utf-8"?>
<!-- Generator: Adobe Illustrator 18.1.1, SVG Export Plug-In . SVG Version: 6.00 Build 0)  -->
<svg version="1.1" id="Layer_1" xmlns="http://www.w3.org/2000/svg" xmlns:xlink="http://www.w3.org/1999/xlink" x="0px" y="0px"
	 viewBox="0 0 77.1 45.3" enable-background="new 0 0 77.1 45.3" xml:space="preserve">
<g>
	<path fill="#EF5B84" d="M35.9,13.2H23.3V9.6h12.6V13.2z M24.1,12.5h11.1v-2.2H24.1V12.5z"/>
	<path fill="#EF5B84" d="M35.9,17.7H23.3V14h12.6V17.7z M24.1,17h11.1v-2.2H24.1V17z"/>
	<path fill="#EF5B84" d="M35.9,22.1H23.3v-3.7h12.6V22.1z M24.1,21.4h11.1v-2.2H24.1V21.4z"/>
	<path fill="#EF5B84" d="M22,35.9H9.4V23.3H22V35.9z M10.1,35.2h11.1V24.1H10.1V35.2z"/>
	<path fill="#EF5B84" d="M29.6,36c-3.5,0-6.3-2.8-6.3-6.3s2.8-6.3,6.3-6.3s6.3,2.8,6.3,6.3S33.1,36,29.6,36z M29.6,24
		c-3.1,0-5.6,2.5-5.6,5.6s2.5,5.6,5.6,5.6s5.6-2.5,5.6-5.6S32.7,24,29.6,24z"/>
	<rect x="39.7" y="9.6" fill="#EF5B84" width="0.8" height="26.4"/>
	<path fill="#EF5B84" d="M47.4,14.1H45l-0.6,2h-0.8l2.2-6.5h0.9l2.2,6.5H48L47.4,14.1z M47.2,13.4l-0.3-1c-0.2-0.7-0.4-1.4-0.6-2.2
		h0c-0.2,0.8-0.4,1.5-0.6,2.2l-0.3,1H47.2z"/>
	<path fill="#EF5B84" d="M49.7,9.6h0.8v5.8h2.8V16h-3.7V9.6z"/>
	<path fill="#EF5B84" d="M54.5,9.6h0.8v5.8h2.8V16h-3.7V9.6z"/>
	<path fill="#EF5B84" d="M43.5,19.4h3.7v0.7h-2.9v2h2.5v0.7h-2.5v2.4h3v0.7h-3.8V19.4z"/>
	<path fill="#EF5B84" d="M47.8,19.4h0.9l1,3.5c0.2,0.8,0.4,1.4,0.6,2.1h0c0.2-0.8,0.4-1.4,0.6-2.1l1-3.5h0.8l-2.1,6.5h-1L47.8,19.4z
		"/>
	<path fill="#EF5B84" d="M53.7,19.4h3.7v0.7h-2.9v2H57v0.7h-2.5v2.4h3v0.7h-3.8V19.4z"/>
	<path fill="#EF5B84" d="M62.3,25.9l-1.6-2.7h-1.2v2.7h-0.8v-6.5h2c1.3,0,2.3,0.5,2.3,1.8c0,1-0.6,1.6-1.5,1.8l1.7,2.8H62.3z
		 M59.5,22.5h1.1c1,0,1.6-0.4,1.6-1.3c0-0.9-0.6-1.2-1.6-1.2h-1.1V22.5z"/>
	<path fill="#EF5B84" d="M65.3,23.4l-2-4h0.9l0.8,1.8c0.2,0.5,0.4,0.9,0.6,1.4h0c0.2-0.5,0.4-0.9,0.6-1.4l0.8-1.8h0.9l-1.9,4v2.5
		h-0.8V23.4z"/>
	<path fill="#EF5B84" d="M45.4,30h-1.9l0.1-0.7h4.5L48.1,30h-1.9L45,35.8h-0.8L45.4,30z"/>
	<path fill="#EF5B84" d="M49.3,29.3h0.8l-0.6,2.7h2.9l0.6-2.7h0.8l-1.3,6.5h-0.8l0.6-3.1h-2.9l-0.6,3.1H48L49.3,29.3z"/>
	<path fill="#EF5B84" d="M55.4,29.3h0.8l-1.3,6.5h-0.8L55.4,29.3z"/>
	<path fill="#EF5B84" d="M57.9,29.3h0.8l1.5,4.2l0.4,1.4h0c0.1-0.6,0.2-1.4,0.3-2.1l0.7-3.4h0.7l-1.3,6.5h-0.8l-1.5-4.1l-0.4-1.4h0
		c-0.1,0.7-0.2,1.4-0.3,2l-0.7,3.5h-0.7L57.9,29.3z"/>
	<path fill="#EF5B84" d="M66.4,29.2c0.8,0,1.3,0.4,1.6,1l-0.5,0.4c-0.2-0.4-0.6-0.7-1.1-0.7c-1.6,0-2.6,1.8-2.6,3.4
		c0,1.2,0.5,2,1.7,2c0.5,0,0.8-0.2,1.1-0.4l0.4-1.8h-1.3l0.1-0.6h2l-0.6,2.8c-0.5,0.4-1.1,0.7-1.8,0.7c-1.6,0-2.4-1-2.4-2.6
		C63,31.3,64.3,29.2,66.4,29.2z"/>
	<path fill="#EF5B84" d="M74.9,42.6H2.5V2.4h72.4V42.6z M3.3,41.8h70.7V3.2H3.3V41.8z"/>
	<path fill="#EF5B84" d="M22,22.2H9.4L22,9.6V22.2z M11.3,21.4h9.9v-9.9L11.3,21.4z"/>
</g>
</svg>
