<?xml version="1.0" encoding="utf-8"?>
<!-- Generator: Adobe Illustrator 18.1.1, SVG Export Plug-In . SVG Version: 6.00 Build 0)  -->
<svg version="1.1" id="Layer_1" xmlns="http://www.w3.org/2000/svg" xmlns:xlink="http://www.w3.org/1999/xlink" x="0px" y="0px"
	 viewBox="0 0 364.2 202.5" enable-background="new 0 0 364.2 202.5" xml:space="preserve">
<g>
	<path fill="#FFFFFF" d="M168.1,54.5h-63.3V36.1h63.3V54.5z M108.4,50.9h56.1V39.7h-56.1V50.9z"/>
	<path fill="#FFFFFF" d="M168.1,77h-63.3V58.6h63.3V77z M108.4,73.4h56.1V62.2h-56.1V73.4z"/>
	<path fill="#FFFFFF" d="M168.1,99.4h-63.3V81h63.3V99.4z M108.4,95.8h56.1V84.6h-56.1V95.8z"/>
	<path fill="#FFFFFF" d="M97.7,168.8H34.5v-63.3h63.3V168.8z M38.1,165.2h56.1v-56.1H38.1V165.2z"/>
	<path fill="#FFFFFF" d="M136.4,169c-17.6,0-31.8-14.3-31.8-31.8s14.3-31.8,31.8-31.8s31.8,14.3,31.8,31.8S154,169,136.4,169z
		 M136.4,109c-15.5,0-28.1,12.6-28.1,28.1s12.6,28.1,28.1,28.1s28.1-12.6,28.1-28.1S151.9,109,136.4,109z"/>
	<rect x="186.8" y="36.1" fill="#FFFFFF" width="4.1" height="132.7"/>
	<path fill="#FFFFFF" d="M225.6,58.8h-11.9l-3.1,10h-4.2l11-32.6h4.7l11,32.6h-4.4L225.6,58.8z M224.6,55.4l-1.5-5
		c-1.1-3.6-2.2-7.2-3.2-11h-0.2c-1,3.8-2.1,7.4-3.2,11l-1.6,5H224.6z"/>
	<path fill="#FFFFFF" d="M237.5,36.1h4.2v29.1h14.2v3.5h-18.4V36.1z"/>
	<path fill="#FFFFFF" d="M261.4,36.1h4.2v29.1h14.2v3.5h-18.4V36.1z"/>
	<path fill="#FFFFFF" d="M206.4,85.9h18.8v3.5h-14.6v10.3h12.3v3.5h-12.3V115h15.1v3.5h-19.3V85.9z"/>
	<path fill="#FFFFFF" d="M227.9,85.9h4.4l5.3,17.6c1.1,3.9,1.9,7,3.1,10.8h0.2c1.2-3.8,2-6.9,3.1-10.8l5.2-17.6h4.2l-10.3,32.6h-4.8
		L227.9,85.9z"/>
	<path fill="#FFFFFF" d="M257.7,85.9h18.8v3.5h-14.6v10.3h12.3v3.5h-12.3V115H277v3.5h-19.3V85.9z"/>
	<path fill="#FFFFFF" d="M301.6,118.5l-7.9-13.8h-5.9v13.8h-4.2V85.9H294c6.6,0,11.4,2.4,11.4,9.2c0,5.1-2.9,8.1-7.3,9.3l8.3,14.2
		H301.6z M287.9,101.3h5.5c5.1,0,7.9-2.1,7.9-6.3c0-4.3-2.8-5.8-7.9-5.8h-5.5V101.3z"/>
	<path fill="#FFFFFF" d="M317,105.9l-9.9-20h4.5l4.2,9.2c1,2.4,2,4.7,3.2,7.1h0.2c1.1-2.4,2.2-4.7,3.2-7.1l4.2-9.2h4.3l-9.8,20v12.6
		H317V105.9z"/>
	<path fill="#FFFFFF" d="M215.8,139h-9.5l0.6-3.3h22.8l-0.6,3.3h-9.5l-5.8,29.3H210L215.8,139z"/>
	<path fill="#FFFFFF" d="M235.4,135.6h3.9l-2.8,13.8h14.7l2.8-13.8h3.8l-6.5,32.6h-3.9l3.1-15.5h-14.7l-3.1,15.5h-3.9L235.4,135.6z"
		/>
	<path fill="#FFFFFF" d="M266.3,135.6h3.9l-6.5,32.6h-3.9L266.3,135.6z"/>
	<path fill="#FFFFFF" d="M278.9,135.6h3.9l7.5,20.9l2.1,6.8h0.2c0.4-3.2,0.8-7,1.5-10.4l3.4-17.3h3.7l-6.5,32.6h-3.8l-7.4-20.8
		l-2.1-7h-0.2c-0.4,3.4-0.9,7-1.5,10.3l-3.5,17.6h-3.7L278.9,135.6z"/>
	<path fill="#FFFFFF" d="M321.6,135c3.9,0,6.6,2,8.2,4.8l-2.7,2c-1.2-2.1-3-3.5-5.7-3.5c-8.2,0-13.2,9.1-13.2,17
		c0,5.8,2.4,10.3,8.7,10.3c2.4,0,4.3-0.9,5.6-2l1.8-9h-6.8l0.6-3.2h10.3l-2.8,14.1c-2.4,2-5.5,3.3-9.3,3.3
		c-7.9,0-12.1-5.2-12.1-13.2C304.3,145.3,310.9,135,321.6,135z"/>
	<path fill="#FFFFFF" d="M364.2,202.5H0V0h364.2V202.5z M4.1,198.3h356V4.1H4.1V198.3z"/>
	<path fill="#FFFFFF" d="M97.9,99.5H34.6l63.3-63.3V99.5z M44.1,95.6H94V45.7L44.1,95.6z"/>
</g>
</svg>
