<?xml version="1.0" encoding="utf-8"?>
<!-- Generator: Adobe Illustrator 18.1.1, SVG Export Plug-In . SVG Version: 6.00 Build 0)  -->
<svg version="1.1" id="Layer_1" xmlns="http://www.w3.org/2000/svg" xmlns:xlink="http://www.w3.org/1999/xlink" x="0px" y="0px"
	 viewBox="0 0 308.1 45.3" enable-background="new 0 0 308.1 45.3" xml:space="preserve">
<g>
	<g>
		<path fill="#FFFFFF" d="M1.2,0.5h8.5c5.5,0,9.6,1.9,9.6,7.8c0,5.6-4.2,8.2-9.6,8.2h-4v9.2H1.2V0.5z M9.3,12.8
			c3.8,0,5.5-1.5,5.5-4.6C14.9,5.1,13,4,9.3,4H5.7v8.8H9.3z"/>
		<path fill="#FFFFFF" d="M28.7,12.9C28.7,4.8,33.2,0,39.8,0c6.5,0,11.1,4.8,11.1,12.9c0,8.2-4.5,13.2-11.1,13.2
			C33.2,26.1,28.7,21.1,28.7,12.9z M46.3,12.9c0-5.6-2.6-9.1-6.5-9.1c-4,0-6.5,3.4-6.5,9.1c0,5.7,2.6,9.3,6.5,9.3
			C43.8,22.2,46.3,18.6,46.3,12.9z"/>
		<path fill="#FFFFFF" d="M75.4,25.7L70,15.8h-3.8v9.9h-4.5V0.5h8.5c5.2,0,9.3,1.8,9.3,7.5c0,3.9-2,6.2-5,7.2l6,10.5H75.4z
			 M66.2,12.3h3.5c3.5,0,5.3-1.5,5.3-4.3C75,5,73.2,4,69.7,4h-3.5V12.3z"/>
		<path fill="#FFFFFF" d="M96.9,4.2h-7.3V0.5h19v3.8h-7.2v21.4h-4.5V4.2z"/>
		<path fill="#FFFFFF" d="M119.7,19.4c1.8,1.7,4.2,2.9,6.6,2.9c2.8,0,4.4-1.3,4.4-3.2c0-2.1-1.6-2.7-3.9-3.7l-3.4-1.5
			c-2.5-1-5.1-3-5.1-6.7c0-4,3.5-7.1,8.4-7.1c3,0,5.8,1.2,7.8,3.2L132.2,6c-1.6-1.3-3.3-2.2-5.5-2.2c-2.4,0-3.9,1.1-3.9,3
			c0,2,1.9,2.7,4,3.5l3.4,1.4c3,1.3,5.1,3.2,5.1,6.8c0,4.1-3.4,7.5-9.1,7.5c-3.4,0-6.7-1.3-9.1-3.7L119.7,19.4z"/>
		<path fill="#FFFFFF" d="M145.7,0.5h4.5v10.1h10.2V0.5h4.5v25.2h-4.5V14.5h-10.2v11.2h-4.5V0.5z"/>
		<path fill="#FFFFFF" d="M175.2,12.9c0-8.1,4.5-12.9,11.1-12.9c6.5,0,11.1,4.8,11.1,12.9c0,8.2-4.5,13.2-11.1,13.2
			C179.8,26.1,175.2,21.1,175.2,12.9z M192.9,12.9c0-5.6-2.6-9.1-6.5-9.1c-4,0-6.5,3.4-6.5,9.1c0,5.7,2.6,9.3,6.5,9.3
			C190.3,22.2,192.9,18.6,192.9,12.9z"/>
		<path fill="#FFFFFF" d="M206.1,0.5h4.6l2.2,12.7c0.4,2.7,0.8,5.4,1.3,8.1h0.2c0.5-2.7,1.1-5.4,1.6-8.1L219,0.5h3.9l3.1,12.7
			c0.5,2.6,1.1,5.4,1.7,8.1h0.2c0.4-2.7,0.8-5.4,1.2-8.1l2.2-12.7h4.3l-4.9,25.2h-5.5L222,12.4c-0.4-2-0.8-3.9-1.1-5.8h-0.2
			c-0.3,1.9-0.7,3.9-1.1,5.8l-3,13.3h-5.5L206.1,0.5z"/>
		<path fill="#FFFFFF" d="M245.9,0.5h4.5v21.4h10.4v3.8h-14.9V0.5z"/>
		<path fill="#FFFFFF" d="M271.1,0.5h4.5v25.2h-4.5V0.5z"/>
		<path fill="#FFFFFF" d="M285.9,12.9C285.9,4.8,290.5,0,297,0c6.5,0,11.1,4.8,11.1,12.9c0,8.2-4.5,13.2-11.1,13.2
			C290.5,26.1,285.9,21.1,285.9,12.9z M303.6,12.9c0-5.6-2.6-9.1-6.5-9.1c-4,0-6.5,3.4-6.5,9.1c0,5.7,2.6,9.3,6.5,9.3
			C301,22.2,303.6,18.6,303.6,12.9z"/>
	</g>
	<g>
		<path fill="#FFFFFF" d="M1.3,42.5c0.6,0.5,1.4,0.8,2,0.8c0.7,0,1-0.2,1-0.6c0-0.4-0.4-0.5-1.2-0.8l-1.1-0.5
			C1.1,41,0.3,40.3,0.3,39c0-1.5,1.3-2.7,3.2-2.7c1,0,2.1,0.4,2.9,1.2l-1.1,1.4c-0.6-0.4-1.1-0.6-1.7-0.6c-0.6,0-0.9,0.2-0.9,0.6
			c0,0.4,0.5,0.6,1.3,0.9l1,0.4c1.1,0.4,1.7,1.2,1.7,2.4c0,1.5-1.2,2.8-3.4,2.8c-1.1,0-2.3-0.4-3.3-1.2L1.3,42.5z"/>
		<path fill="#FFFFFF" d="M10.2,36.5h5.6v1.9h-3.3v1.4h2.8v1.9h-2.8v1.5h3.4v1.9h-5.7V36.5z"/>
		<path fill="#FFFFFF" d="M24.4,43.3H22l-0.4,1.8h-2.3l2.6-8.6h2.8l2.6,8.6h-2.4L24.4,43.3z M24,41.5l-0.1-0.6
			c-0.2-0.8-0.4-1.9-0.6-2.7h-0.1c-0.2,0.9-0.4,1.9-0.6,2.7l-0.1,0.6H24z"/>
		<path fill="#FFFFFF" d="M31.3,38.4H29v-1.9h6.9v1.9h-2.3v6.7h-2.3V38.4z"/>
		<path fill="#FFFFFF" d="M41.6,38.4h-2.3v-1.9h6.9v1.9h-2.3v6.7h-2.3V38.4z"/>
		<path fill="#FFFFFF" d="M49.8,36.5h2.3v6.7h3.3v1.9h-5.6V36.5z"/>
		<path fill="#FFFFFF" d="M59.2,36.5h5.6v1.9h-3.3v1.4h2.8v1.9h-2.8v1.5h3.4v1.9h-5.7V36.5z"/>
		<path fill="#FFFFFF" d="M78.8,36.3c1.1,0,2,0.5,2.6,1.1l-1.2,1.4c-0.4-0.4-0.8-0.6-1.4-0.6c-1,0-1.9,0.9-1.9,2.5
			c0,1.6,0.7,2.5,1.9,2.5c0.7,0,1.1-0.3,1.5-0.7l1.2,1.4c-0.7,0.9-1.7,1.3-2.8,1.3c-2.3,0-4.2-1.5-4.2-4.4
			C74.6,38,76.5,36.3,78.8,36.3z"/>
		<path fill="#FFFFFF" d="M85.3,36.5h5.6v1.9h-3.3v1.4h2.8v1.9h-2.8v1.5H91v1.9h-5.7V36.5z"/>
		<path fill="#FFFFFF" d="M94.8,36.5h2.3l1.9,3.9l0.8,1.9h0.1c-0.1-0.9-0.3-2.2-0.3-3.3v-2.5h2.2v8.6h-2.3l-1.9-3.9l-0.8-1.9h-0.1
			c0.1,1,0.3,2.2,0.3,3.3v2.5h-2.2V36.5z"/>
		<path fill="#FFFFFF" d="M107.8,38.4h-2.3v-1.9h6.9v1.9H110v6.7h-2.3V38.4z"/>
		<path fill="#FFFFFF" d="M120.7,45.1l-1.5-2.9h-0.9v2.9h-2.3v-8.6h3.3c1.9,0,3.5,0.6,3.5,2.8c0,1.2-0.6,2-1.4,2.5l1.9,3.3H120.7z
			 M118.3,40.4h0.8c0.9,0,1.4-0.4,1.4-1.1s-0.5-1-1.4-1h-0.8V40.4z"/>
		<path fill="#FFFFFF" d="M131.3,43.3h-2.4l-0.4,1.8h-2.3l2.6-8.6h2.8l2.6,8.6h-2.4L131.3,43.3z M130.9,41.5l-0.1-0.6
			c-0.2-0.8-0.4-1.9-0.6-2.7h-0.1c-0.2,0.9-0.4,1.9-0.6,2.7l-0.1,0.6H130.9z"/>
		<path fill="#FFFFFF" d="M137.7,36.5h2.3v6.7h3.3v1.9h-5.6V36.5z"/>
		<path fill="#FFFFFF" d="M157,36.3c1.1,0,2,0.5,2.6,1.1l-1.2,1.4c-0.4-0.4-0.8-0.6-1.4-0.6c-1,0-1.9,0.9-1.9,2.5
			c0,1.6,0.7,2.5,1.9,2.5c0.7,0,1.1-0.3,1.5-0.7l1.2,1.4c-0.7,0.9-1.7,1.3-2.8,1.3c-2.3,0-4.2-1.5-4.2-4.4
			C152.8,38,154.7,36.3,157,36.3z"/>
		<path fill="#FFFFFF" d="M167.9,45.1l-1.5-2.9h-0.9v2.9h-2.3v-8.6h3.3c1.9,0,3.5,0.6,3.5,2.8c0,1.2-0.6,2-1.4,2.5l1.9,3.3H167.9z
			 M165.5,40.4h0.8c0.9,0,1.4-0.4,1.4-1.1s-0.5-1-1.4-1h-0.8V40.4z"/>
		<path fill="#FFFFFF" d="M173.8,36.5h5.6v1.9h-3.3v1.4h2.8v1.9h-2.8v1.5h3.4v1.9h-5.7V36.5z"/>
		<path fill="#FFFFFF" d="M188,43.3h-2.4l-0.4,1.8h-2.3l2.6-8.6h2.8l2.6,8.6h-2.4L188,43.3z M187.6,41.5l-0.1-0.6
			c-0.2-0.8-0.4-1.9-0.6-2.7h-0.1c-0.2,0.9-0.4,1.9-0.6,2.7l-0.1,0.6H187.6z"/>
		<path fill="#FFFFFF" d="M194.8,38.4h-2.3v-1.9h6.9v1.9h-2.3v6.7h-2.3V38.4z"/>
		<path fill="#FFFFFF" d="M203.1,36.5h2.3v8.6h-2.3V36.5z"/>
		<path fill="#FFFFFF" d="M208.8,36.5h2.4l0.9,3.8c0.2,0.9,0.4,1.8,0.6,2.7h0.1c0.2-0.9,0.4-1.8,0.6-2.7l0.9-3.8h2.3l-2.6,8.6h-2.8
			L208.8,36.5z"/>
		<path fill="#FFFFFF" d="M220.3,36.5h5.6v1.9h-3.3v1.4h2.8v1.9h-2.8v1.5h3.4v1.9h-5.7V36.5z"/>
		<path fill="#FFFFFF" d="M240.1,43.3h-2.4l-0.4,1.8h-2.3l2.6-8.6h2.8l2.6,8.6h-2.4L240.1,43.3z M239.7,41.5l-0.1-0.6
			c-0.2-0.8-0.4-1.9-0.6-2.7h-0.1c-0.2,0.9-0.4,1.9-0.6,2.7l-0.1,0.6H239.7z"/>
		<path fill="#FFFFFF" d="M250,36.3c1.1,0,2,0.5,2.6,1.1l-1.2,1.4c-0.4-0.4-0.8-0.6-1.4-0.6c-1,0-1.9,0.9-1.9,2.5
			c0,1.6,0.7,2.5,1.9,2.5c0.7,0,1.1-0.3,1.5-0.7l1.2,1.4c-0.7,0.9-1.7,1.3-2.8,1.3c-2.3,0-4.2-1.5-4.2-4.4
			C245.7,38,247.7,36.3,250,36.3z"/>
		<path fill="#FFFFFF" d="M261.2,43.3h-2.4l-0.4,1.8H256l2.6-8.6h2.8l2.6,8.6h-2.4L261.2,43.3z M260.8,41.5l-0.1-0.6
			c-0.2-0.8-0.4-1.9-0.6-2.7h-0.1c-0.2,0.9-0.4,1.9-0.6,2.7l-0.1,0.6H260.8z"/>
		<path fill="#FFFFFF" d="M267.6,36.5h2.6c2.6,0,4.4,1.2,4.4,4.3c0,3.1-1.8,4.4-4.3,4.4h-2.7V36.5z M270.1,43.3
			c1.2,0,2.2-0.5,2.2-2.5c0-2-1-2.4-2.2-2.4h-0.1v5H270.1z"/>
		<path fill="#FFFFFF" d="M278.3,36.5h5.6v1.9h-3.3v1.4h2.8v1.9h-2.8v1.5h3.4v1.9h-5.7V36.5z"/>
		<path fill="#FFFFFF" d="M287.8,36.5h2.4l1.4,3.6l0.5,1.4h0.1l0.5-1.4l1.3-3.6h2.4v8.6h-2.1v-2.6c0-0.9,0.2-2.2,0.3-3.1h-0.1
			l-0.7,2l-1.2,2.9h-0.9l-1.2-2.9l-0.7-2h-0.1c0.1,0.9,0.3,2.2,0.3,3.1v2.6h-2.1V36.5z"/>
		<path fill="#FFFFFF" d="M302.4,42.1l-2.6-5.7h2.4l0.6,1.8c0.2,0.6,0.4,1.2,0.7,1.9h0.1c0.2-0.7,0.5-1.3,0.7-1.9l0.6-1.8h2.4
			l-2.6,5.7v3h-2.3V42.1z"/>
	</g>
</g>
</svg>
