<?xml version="1.0" encoding="utf-8"?>
<!-- Generator: Adobe Illustrator 18.1.1, SVG Export Plug-In . SVG Version: 6.00 Build 0)  -->
<svg version="1.1" id="Layer_1" xmlns="http://www.w3.org/2000/svg" xmlns:xlink="http://www.w3.org/1999/xlink" x="0px" y="0px"
	 viewBox="0 0 339.7 49.9" enable-background="new 0 0 339.7 49.9" xml:space="preserve">
<g>
	<g>
		<path fill="#FFC845" d="M1.3,0.5h9.3c6.1,0,10.5,2.1,10.5,8.6c0,6.2-4.6,9-10.5,9H6.3v10.2H1.3V0.5z M10.3,14.1
			c4.2,0,6.1-1.7,6.1-5.1c0-3.5-2.1-4.6-6.1-4.6h-4v9.7H10.3z"/>
		<path fill="#FFC845" d="M31.6,14.3c0-9,5-14.3,12.3-14.3c7.2,0,12.2,5.3,12.2,14.3c0,9-5,14.5-12.2,14.5
			C36.6,28.8,31.6,23.3,31.6,14.3z M51.1,14.3c0-6.2-2.8-10-7.2-10c-4.4,0-7.2,3.8-7.2,10c0,6.2,2.8,10.2,7.2,10.2
			C48.2,24.5,51.1,20.5,51.1,14.3z"/>
		<path fill="#FFC845" d="M83.1,28.3l-6-10.9h-4.2v10.9H68V0.5h9.3c5.8,0,10.2,2,10.2,8.2c0,4.2-2.2,6.8-5.6,7.9l6.6,11.6H83.1z
			 M72.9,13.5h3.9c3.8,0,5.9-1.6,5.9-4.8c0-3.2-2-4.3-5.9-4.3h-3.9V13.5z"/>
		<path fill="#FFC845" d="M106.8,4.7h-8V0.5h20.9v4.2h-8v23.6h-4.9V4.7z"/>
		<path fill="#FFC845" d="M132,21.4c2,1.9,4.7,3.1,7.3,3.1c3.1,0,4.8-1.4,4.8-3.6c0-2.3-1.8-3-4.3-4.1l-3.8-1.7
			c-2.8-1.1-5.6-3.3-5.6-7.4c0-4.4,3.9-7.8,9.3-7.8c3.3,0,6.4,1.4,8.6,3.5l-2.5,3.1c-1.7-1.5-3.7-2.4-6-2.4c-2.6,0-4.3,1.2-4.3,3.3
			c0,2.2,2.1,3,4.4,3.9l3.7,1.6c3.3,1.4,5.6,3.5,5.6,7.5c0,4.5-3.7,8.2-10,8.2c-3.7,0-7.3-1.5-10-4.1L132,21.4z"/>
		<path fill="#FFC845" d="M160.6,0.5h4.9v11.2h11.2V0.5h4.9v27.8h-4.9V16h-11.2v12.3h-4.9V0.5z"/>
		<path fill="#FFC845" d="M193.1,14.3c0-9,5-14.3,12.3-14.3c7.2,0,12.2,5.3,12.2,14.3c0,9-5,14.5-12.2,14.5
			C198.2,28.8,193.1,23.3,193.1,14.3z M212.6,14.3c0-6.2-2.8-10-7.2-10c-4.4,0-7.2,3.8-7.2,10c0,6.2,2.8,10.2,7.2,10.2
			C209.8,24.5,212.6,20.5,212.6,14.3z"/>
		<path fill="#FFC845" d="M227.1,0.5h5.1l2.4,14c0.5,3,0.9,5.9,1.4,8.9h0.2c0.6-2.9,1.2-5.9,1.8-8.9l3.4-14h4.2l3.4,14
			c0.6,2.9,1.2,5.9,1.8,8.9h0.2c0.5-3,0.9-5.9,1.4-8.9l2.4-14h4.8l-5.4,27.8h-6.1l-3.4-14.6c-0.5-2.2-0.8-4.3-1.2-6.4h-0.2
			c-0.4,2.1-0.8,4.2-1.2,6.4l-3.4,14.6h-6L227.1,0.5z"/>
		<path fill="#FFC845" d="M271,0.5h4.9v23.6h11.5v4.2H271V0.5z"/>
		<path fill="#FFC845" d="M298.8,0.5h4.9v27.8h-4.9V0.5z"/>
		<path fill="#FFC845" d="M315.2,14.3c0-9,5-14.3,12.3-14.3c7.2,0,12.2,5.3,12.2,14.3c0,9-5,14.5-12.2,14.5
			C320.2,28.8,315.2,23.3,315.2,14.3z M334.6,14.3c0-6.2-2.8-10-7.2-10c-4.4,0-7.2,3.8-7.2,10c0,6.2,2.8,10.2,7.2,10.2
			C331.8,24.5,334.6,20.5,334.6,14.3z"/>
	</g>
	<g>
		<path fill="#FFFFFF" d="M1.4,46.8c0.7,0.5,1.5,0.9,2.2,0.9c0.8,0,1.1-0.2,1.1-0.7c0-0.5-0.5-0.6-1.3-0.9l-1.2-0.5
			c-1-0.4-1.9-1.3-1.9-2.7c0-1.6,1.5-3,3.5-3c1.1,0,2.3,0.4,3.2,1.3l-1.3,1.6c-0.6-0.5-1.2-0.7-1.9-0.7c-0.6,0-1,0.2-1,0.6
			c0,0.5,0.5,0.6,1.4,1l1.2,0.5c1.2,0.5,1.9,1.3,1.9,2.6c0,1.6-1.3,3-3.7,3c-1.2,0-2.6-0.4-3.6-1.4L1.4,46.8z"/>
		<path fill="#FFFFFF" d="M11.2,40.2h6.2v2.1h-3.6v1.5h3.1v2.1h-3.1v1.7h3.8v2.1h-6.3V40.2z"/>
		<path fill="#FFFFFF" d="M26.9,47.7h-2.7l-0.5,2h-2.6l2.9-9.5h3l2.9,9.5h-2.7L26.9,47.7z M26.5,45.8l-0.2-0.7
			c-0.2-0.9-0.5-2.1-0.7-3h-0.1c-0.2,1-0.4,2.1-0.7,3l-0.2,0.7H26.5z"/>
		<path fill="#FFFFFF" d="M34.5,42.3h-2.5v-2.1h7.6v2.1H37v7.4h-2.5V42.3z"/>
		<path fill="#FFFFFF" d="M45.8,42.3h-2.5v-2.1h7.6v2.1h-2.5v7.4h-2.5V42.3z"/>
		<path fill="#FFFFFF" d="M54.9,40.2h2.5v7.4H61v2.1h-6.1V40.2z"/>
		<path fill="#FFFFFF" d="M65.2,40.2h6.2v2.1h-3.6v1.5h3.1v2.1h-3.1v1.7h3.8v2.1h-6.3V40.2z"/>
		<path fill="#FFFFFF" d="M86.8,40c1.2,0,2.2,0.6,2.9,1.3l-1.4,1.6c-0.5-0.4-0.9-0.6-1.5-0.6c-1.1,0-2.1,1-2.1,2.8
			c0,1.8,0.8,2.8,2.1,2.8c0.7,0,1.3-0.3,1.7-0.8l1.4,1.5c-0.8,0.9-1.9,1.4-3.1,1.4c-2.5,0-4.6-1.6-4.6-4.9
			C82.2,41.9,84.4,40,86.8,40z"/>
		<path fill="#FFFFFF" d="M94.1,40.2h6.2v2.1h-3.6v1.5h3.1v2.1h-3.1v1.7h3.8v2.1h-6.3V40.2z"/>
		<path fill="#FFFFFF" d="M104.5,40.2h2.6l2.1,4.2l0.9,2.1h0.1c-0.1-1-0.3-2.5-0.3-3.6v-2.8h2.4v9.5h-2.6l-2.1-4.3l-0.9-2.1h-0.1
			c0.1,1.1,0.3,2.5,0.3,3.6v2.8h-2.4V40.2z"/>
		<path fill="#FFFFFF" d="M118.8,42.3h-2.5v-2.1h7.6v2.1h-2.5v7.4h-2.5V42.3z"/>
		<path fill="#FFFFFF" d="M133.1,49.7l-1.6-3.2h-1v3.2h-2.5v-9.5h3.6c2.1,0,3.8,0.7,3.8,3.1c0,1.4-0.6,2.3-1.5,2.8l2.1,3.7H133.1z
			 M130.4,44.6h0.9c1,0,1.5-0.4,1.5-1.3s-0.5-1.1-1.5-1.1h-0.9V44.6z"/>
		<path fill="#FFFFFF" d="M144.7,47.7h-2.7l-0.5,2H139l2.9-9.5h3l2.9,9.5h-2.7L144.7,47.7z M144.3,45.8l-0.2-0.7
			c-0.2-0.9-0.5-2.1-0.7-3h-0.1c-0.2,1-0.4,2.1-0.7,3l-0.2,0.7H144.3z"/>
		<path fill="#FFFFFF" d="M151.8,40.2h2.5v7.4h3.6v2.1h-6.1V40.2z"/>
		<path fill="#FFFFFF" d="M173,40c1.2,0,2.2,0.6,2.9,1.3l-1.4,1.6c-0.5-0.4-0.9-0.6-1.5-0.6c-1.1,0-2.1,1-2.1,2.8
			c0,1.8,0.8,2.8,2.1,2.8c0.7,0,1.3-0.3,1.7-0.8l1.4,1.5c-0.8,0.9-1.9,1.4-3.1,1.4c-2.5,0-4.6-1.6-4.6-4.9
			C168.4,41.9,170.6,40,173,40z"/>
		<path fill="#FFFFFF" d="M185,49.7l-1.6-3.2h-1v3.2h-2.5v-9.5h3.6c2.1,0,3.8,0.7,3.8,3.1c0,1.4-0.6,2.3-1.5,2.8l2.1,3.7H185z
			 M182.4,44.6h0.9c1,0,1.5-0.4,1.5-1.3s-0.5-1.1-1.5-1.1h-0.9V44.6z"/>
		<path fill="#FFFFFF" d="M191.6,40.2h6.2v2.1h-3.6v1.5h3.1v2.1h-3.1v1.7h3.8v2.1h-6.3V40.2z"/>
		<path fill="#FFFFFF" d="M207.2,47.7h-2.7l-0.5,2h-2.6l2.9-9.5h3l2.9,9.5h-2.7L207.2,47.7z M206.8,45.8l-0.2-0.7
			c-0.2-0.9-0.5-2.1-0.7-3h-0.1c-0.2,1-0.4,2.1-0.7,3l-0.2,0.7H206.8z"/>
		<path fill="#FFFFFF" d="M214.8,42.3h-2.5v-2.1h7.6v2.1h-2.5v7.4h-2.5V42.3z"/>
		<path fill="#FFFFFF" d="M223.8,40.2h2.5v9.5h-2.5V40.2z"/>
		<path fill="#FFFFFF" d="M230.2,40.2h2.7l1,4.2c0.3,1,0.4,2,0.7,3h0.1c0.3-1,0.5-2,0.7-3l1-4.2h2.6l-2.8,9.5h-3L230.2,40.2z"/>
		<path fill="#FFFFFF" d="M242.8,40.2h6.2v2.1h-3.6v1.5h3.1v2.1h-3.1v1.7h3.8v2.1h-6.3V40.2z"/>
		<path fill="#FFFFFF" d="M264.7,47.7H262l-0.5,2H259l2.9-9.5h3l2.9,9.5h-2.7L264.7,47.7z M264.2,45.8l-0.2-0.7
			c-0.2-0.9-0.5-2.1-0.7-3h-0.1c-0.2,1-0.4,2.1-0.7,3l-0.2,0.7H264.2z"/>
		<path fill="#FFFFFF" d="M275.5,40c1.2,0,2.2,0.6,2.9,1.3l-1.4,1.6c-0.5-0.4-0.9-0.6-1.5-0.6c-1.1,0-2.1,1-2.1,2.8
			c0,1.8,0.8,2.8,2.1,2.8c0.7,0,1.3-0.3,1.7-0.8l1.4,1.5c-0.8,0.9-1.9,1.4-3.1,1.4c-2.5,0-4.6-1.6-4.6-4.9
			C270.9,41.9,273.1,40,275.5,40z"/>
		<path fill="#FFFFFF" d="M287.9,47.7h-2.7l-0.5,2h-2.6l2.9-9.5h3l2.9,9.5h-2.7L287.9,47.7z M287.4,45.8l-0.2-0.7
			c-0.2-0.9-0.5-2.1-0.7-3h-0.1c-0.2,1-0.4,2.1-0.7,3l-0.2,0.7H287.4z"/>
		<path fill="#FFFFFF" d="M295,40.2h2.8c2.9,0,4.9,1.3,4.9,4.7s-2,4.8-4.7,4.8h-3V40.2z M297.7,47.7c1.4,0,2.5-0.6,2.5-2.8
			s-1.1-2.7-2.5-2.7h-0.1v5.5H297.7z"/>
		<path fill="#FFFFFF" d="M306.8,40.2h6.2v2.1h-3.6v1.5h3.1v2.1h-3.1v1.7h3.8v2.1h-6.3V40.2z"/>
		<path fill="#FFFFFF" d="M317.3,40.2h2.6l1.5,4l0.5,1.6h0.1l0.5-1.6l1.4-4h2.6v9.5h-2.3v-2.8c0-1,0.2-2.4,0.3-3.4h-0.1l-0.8,2.2
			l-1.3,3.2h-0.9l-1.3-3.2l-0.8-2.2h-0.1c0.1,1,0.3,2.4,0.3,3.4v2.8h-2.3V40.2z"/>
		<path fill="#FFFFFF" d="M333.3,46.5l-2.9-6.2h2.7l0.7,2c0.2,0.7,0.5,1.4,0.7,2.1h0.1c0.2-0.7,0.5-1.4,0.7-2.1l0.7-2h2.6l-2.9,6.2
			v3.3h-2.5V46.5z"/>
	</g>
</g>
</svg>
